<?xml version="1.0" encoding="utf-8"?>
<!-- Generator: Adobe Illustrator 19.0.0, SVG Export Plug-In . SVG Version: 6.00 Build 0)  -->
<svg version="1.1" id="圖層_1" xmlns="http://www.w3.org/2000/svg" xmlns:xlink="http://www.w3.org/1999/xlink" x="0px" y="0px"
	 viewBox="45 -33.8 150 150" style="enable-background:new 45 -33.8 150 150;" xml:space="preserve">
<style type="text/css">
	.st0{enable-background:new    ;}
</style>
<g class="st0">
	<path d="M137.6,40.2C150.3,60,159.1,78,164,94.1c0.9,3.7,1,6.6,0.5,8.7c-0.7,2.6-2.3,3.6-4.9,2.8c-2.2-0.6-3.4-2.2-3.8-4.8
		c-3.8-16.1-11.9-34.8-24.3-56c-21.1,15.6-45.9,25.9-74.4,31.1L56,72.1c26-6.9,49.8-18.3,71.2-34.4C116.3,19.8,99.6,0.1,83.1-21.3
		l2.8-2.5c17.6,20.4,35.3,39.3,47.1,56.9c14.7-12.1,29.1-29.3,39.1-43.6C180-4.8,183.7-1,183.2,0.9c-0.4,1.3-2.7,1.6-6.9,0.8
		C166.5,13.1,152.3,28.6,137.6,40.2z"/>
</g>
</svg>
