<?xml version="1.0" encoding="utf-8"?>
<!-- Generator: Adobe Illustrator 19.0.0, SVG Export Plug-In . SVG Version: 6.00 Build 0)  -->
<svg version="1.1" id="圖層_1" xmlns="http://www.w3.org/2000/svg" xmlns:xlink="http://www.w3.org/1999/xlink" x="0px" y="0px"
	 viewBox="45 -33.8 150 150" style="enable-background:new 45 -33.8 150 150;" xml:space="preserve">
<style type="text/css">
	.st0{enable-background:new    ;}
	.st1{fill:#0030AD;}
	.st2{fill:#BD0F3A;}
	.st3{fill:#0BB4F2;}
</style>
<g class="st0">
	<path class="st1" d="M96.9,75.3c2.1,5.6,3.3,12.4,3.4,20.5c0,3.4,1.3,5.1,4,5.1c3.8,0,5.7-2.1,5.7-6.4c0-6.2-3.4-13.1-10.3-20.7
		L96.9,75.3z"/>
	<path class="st1" d="M73.2,92.8c-2.6,1.7-3.9,3.3-3.9,4.9c0,3.6,1.7,5.4,5.1,5.4c2.6,0,5.2-1.8,7.8-5.3c3.8-4.9,5.9-12.3,6.3-22.2
		l-3.4-1.2C82.8,83.1,78.9,89.2,73.2,92.8z"/>
	<path class="st1" d="M116.3,71.4l-2.3,2.2c5.2,5.1,8.6,10.6,10.3,16.3c1,3.4,2.6,5.1,4.8,5.1c3.3,0,5-1.9,5-5.6
		C134,83.2,128.1,77.2,116.3,71.4z"/>
	<path class="st2" d="M175.4-22.9l-7.5,10.2h-42.1v-9.4c4.2-1.5,6.4-2.9,6.4-4.2c0-2.1-5-3.3-14.9-3.7v17.3h-42
		c-4.2-2.1-7.6-3.8-10.3-4.8v43.4c0,33.8-5,59.5-15,77.3l3.1,2.1c13-16,19.8-40.5,20.4-73.5h0.2v-3.7h0V8.5h0V4.7h0V-9h23.5v0h8.1v0
		h24.2v0h8.1v0h46.2l1.8-3C182.6-15.8,179.2-19.4,175.4-22.9z"/>
	<path class="st3" d="M183.4,48.1l1.5-3c-2.5-3-5.7-6-9.4-9l-6.9,8.3h-68.4c1.4-5.7,2.4-9.9,2.9-12.7h-9
		C91.6,43.8,88.1,56.2,83.6,69l8.8,0.6l1.7-4.5h74.6c-0.3,9.7-1.4,17.2-3.4,22.6c-1.3,3.6-4.2,5.4-8.5,5.4c-5.2,0-10.8-0.4-16.7-1.2
		v3.9c4.9,0.8,8.9,1.7,11.9,2.9c2.4,1,3.7,3,3.9,5.9c7.5-0.1,12.7-3.1,15.6-8.9c3.1-5.9,4.9-15.3,5.4-28.3l3-2.1
		c1-0.7,1.5-1.4,1.5-2.1c0-1.1-2.8-3.6-8.3-7.4l-5.4,5.6H95.2c1.8-5.8,3.1-10.2,4-13.3H183.4z"/>
	<path class="st3" d="M102.9,31.6h59.8v4.9h7.8V10.7l3.3-2.4c0.6-0.4,0.9-0.9,0.9-1.3c0-1.1-2.7-3.6-8.1-7.7l-4.8,5.4h-24.2V-9h-8.1
		V4.7h-24.2V-9h-8.1V4.7H73.6v3.7h23.5v19.4H73.6v3.7h20.3c0,0,0,0,0,0L102.9,31.6C102.9,31.6,102.9,31.6,102.9,31.6z M137.6,8.5
		h25.1v19.4h-25.1V8.5z M105.2,8.5h24.2v19.4h-24.2V8.5z"/>
	<path class="st1" d="M146.3,83.4c1,2.5,2.4,3.7,4.2,3.7c3.1,0,4.7-1.6,4.7-4.8c0-5.3-6.1-10-18.2-13.9l-1.7,2.5
		C141,75.2,144.7,79.3,146.3,83.4z"/>
</g>
</svg>
