<?xml version="1.0" encoding="utf-8"?>
<!-- Generator: Adobe Illustrator 19.0.0, SVG Export Plug-In . SVG Version: 6.00 Build 0)  -->
<svg version="1.1" id="圖層_1" xmlns="http://www.w3.org/2000/svg" xmlns:xlink="http://www.w3.org/1999/xlink" x="0px" y="0px"
	 viewBox="45 -33.8 150 150" style="enable-background:new 45 -33.8 150 150;" xml:space="preserve">
<style type="text/css">
	.st0{enable-background:new    ;}
	.st1{fill:#0030AD;}
	.st2{fill:#0BB4F2;}
	.st3{fill:#BD0F3A;}
</style>
<g class="st0">
	<path class="st1" d="M184.1,81.4c0-1.8,0.1-5.3,0.4-10.6l-4.2-1.3c-1.3,14.4-4.2,22.1-8.5,23.2c-3.7,0.8-14,1.2-30.9,1.2
		c-2.9,0-5.6,0-8.1,0v-0.1l-8.6-0.2v0.1c-6.5-0.2-10.5-0.6-12-1.1c-1.9-0.6-2.9-2.6-2.9-5.8v-5h-8.6v5.8c0,6.4,1.7,10.3,5,11.6
		c3.6,1.4,17.3,2.1,41.1,2.1c20.8,0,33.2-0.6,37.2-1.8c3-1,4.8-3.7,5.2-8.2C185.8,91.2,184.1,87.9,184.1,81.4z"/>
	<path class="st2" d="M109.4,14.7h-8.6v8.6H72.3c-3.1-1.7-6.3-3.2-9.6-4.6v67.5h8.4V74.2h29.7v7.5h8.6V14.7z M100.8,70.5H71.1V50.1
		h29.7V70.5z M100.8,46.3H71.1V27.1h29.7V46.3z"/>
	<path class="st2" d="M168.3,16.9l-5.4,6.4h-30.1V8h24.2v6h8.1v-25.5l3.7-2.1c1-0.5,1.5-1.1,1.5-1.8c0-1.5-3-4.7-9-9.6l-5.8,6.7
		h-46.1v3.7h14.7v108l8.6,0.2V74.2h31.1V80h8.6V30.5l3.7-2.6c0.8-0.4,1.2-1,1.2-1.8C177.5,24.9,174.4,21.8,168.3,16.9z M132.8-14.5
		h24.2V4.3h-24.2V-14.5z M163.9,70.5h-31.1V50.1h31.1V70.5z M163.9,46.3h-31.1V27.1h31.1V46.3z"/>
	<path class="st3" d="M109.4-14.5h0.1v-3.7H79.4c-3.7-2.2-6.9-3.9-9.6-5v38H78V8h22.8v6.7h8.6V-14.5z M100.8,4.3H78v-18.8h22.8V4.3z
		"/>
</g>
</svg>
