<?xml version="1.0" encoding="utf-8"?>
<!-- Generator: Adobe Illustrator 19.0.0, SVG Export Plug-In . SVG Version: 6.00 Build 0)  -->
<svg version="1.1" id="圖層_1" xmlns="http://www.w3.org/2000/svg" xmlns:xlink="http://www.w3.org/1999/xlink" x="0px" y="0px"
	 viewBox="45 -33.8 150 150" style="enable-background:new 45 -33.8 150 150;" xml:space="preserve">
<style type="text/css">
	.st0{enable-background:new    ;}
	.st1{fill:#BD0F3A;}
	.st2{fill:#0BB4F2;}
	.st3{fill:#0030AD;}
</style>
<g class="st0">
	<path class="st1" d="M118.7-22.7c4.1-0.9,6.2-1.9,6.2-3.1c0-1.8-4.9-3.4-14.6-5.1c-0.7,7.2-2,13.8-3.7,19.7h4.8
		C114.9-16,117.3-19.8,118.7-22.7z"/>
	<path class="st2" d="M153.5,33.6c-1.3,4.4-2.8,8.7-4.5,12.7c-3.3-2.1-6.9-4.1-10.8-5.9l-1.6,2.7c3.4,2.1,6.8,4.8,10.2,8.1
		c-2.8,6-6.4,11.5-10.6,16.7l2.6,2.1c4.9-4.7,8.9-9.5,12.1-14.4c0.7,0.7,2,2.2,3.8,4.6c1.5,2.4,2.9,3.6,4.2,3.6
		c2.2,0,3.3-1.2,3.3-3.7c0-2.7-2.6-6.1-7.8-10.2c1.6-3,2.9-5.7,3.9-8.1c3,0,4.5-0.5,4.5-1.6C162.7,38.4,159.6,36.2,153.5,33.6z"/>
	<path class="st3" d="M186.4,91.2c-0.8-2.1-1.2-7-1.2-14.7l-4-1.2c-0.9,11.9-3.5,18.3-7.9,19c-4.2,0.7-13.8,1-28.9,1h-10.3v-0.1
		l-8.3-0.2V95c-4.3-0.1-7.4-0.4-9.2-0.7c-2.2-0.4-3.3-2.1-3.3-4.9v-5.6h-8.3v6.8c0,4.9,1.2,8.1,3.6,9.4c3,1.8,16,2.7,38.8,2.7
		c20.6,0,33.1-0.5,37.6-1.5c3.6-0.8,5.5-3.3,5.9-7.5C188.7,93.7,187.2,92.9,186.4,91.2z"/>
	<path class="st2" d="M113.4-7.4h12.5V95l8.3,0.2V77.5h31.5v6.2h8.1V32.9l3.9-2.7c0.7-0.4,1.1-1,1.1-1.6c0-1.5-3-4.4-9-8.7l-5.3,6.2
		h-30.3V11.8h26.3v3.7h8.9V-4.6L173-7c0.7-0.4,1-0.9,1-1.6c0-1.4-3.1-4.4-9.2-9l-5.3,6.4h-48.2c0,0,0.1-0.1,0.1-0.1h-4.8
		c0,0,0,0.1,0,0.1H81.3c-3.7-1.8-7.4-3.4-11.3-4.8v31.8h8.9v-4h26.2v22H93.6v-5.9l2.6-2c0.7-0.4,1-0.9,1-1.6c0-1.3-2.7-3.8-8.1-7.5
		l-4.7,5.6h-24l1.2,3.7h24v7.8H52.6l1.3,3.7h31.6v8.9H60.4l1.3,3.7h23.8v2h8.1V37.5h11.5v36.3H93.6v-5.9l2.7-2.1
		c0.6-0.4,0.9-0.9,0.9-1.5c0-1-2.7-3.6-8.1-7.8l-4.3,5.1H60.5l1.3,3.7h23.7v8.4H52.9l1,3.7h31.6v9H60.7l1.3,3.7h23.5V95h8.1V77.5
		h11.5v6.3h8.3V-7.4z M134.2-7.4h26.3V8.1h-26.3V-7.4z M134.2,29.8h31.5v44h-31.5V29.8z M105.1,8.1H78.9V-7.4h26.2V8.1z"/>
</g>
</svg>
