<?xml version="1.0" encoding="utf-8"?>
<!-- Generator: Adobe Illustrator 19.0.0, SVG Export Plug-In . SVG Version: 6.00 Build 0)  -->
<svg version="1.1" id="圖層_1" xmlns="http://www.w3.org/2000/svg" xmlns:xlink="http://www.w3.org/1999/xlink" x="0px" y="0px"
	 viewBox="45 -33.8 150 150" style="enable-background:new 45 -33.8 150 150;" xml:space="preserve">
<style type="text/css">
	.st0{enable-background:new    ;}
	.st1{fill:#BD0F3A;}
	.st2{fill:#0BB4F2;}
</style>
<g class="st0">
	<path class="st1" d="M108.1-23.4c-10.3,8.4-20.8,15-31.6,20v4c10.3-2.9,21.7-7.3,34.1-13.3c2.5,0.5,4.4,0.7,5.6,0.7
		c1.9,0,2.9-0.5,2.9-1.5C119-15.5,115.4-18.8,108.1-23.4z"/>
	<path class="st2" d="M76.3-3.3C75-4,72-5.2,67.3-6.9v110.2h9.2V77h34.1l1.7-2.9c-3.8-4.8-7.2-8.4-10-10.9l-7.5,10H76.5V35.5h34.1
		l1.7-2.9c-2.9-3.7-6.3-7.2-10-10.6l-7.4,9.7H76.5V0.6c0,0,0,0,0,0v-4C76.4-3.4,76.4-3.3,76.3-3.3z"/>
	<path class="st2" d="M166.7-11.3l-6.4,7.8h-31.1l2,3.7h31v31.5h-31.8l1.7,3.7h30.1v37.7h-31.8L132,77h30.1v26.4h9.2V3l3.9-2.6
		c0.9-0.6,1.4-1.2,1.4-1.9C176.5-3.1,173.2-6.3,166.7-11.3z"/>
</g>
</svg>
