<?xml version="1.0" encoding="utf-8"?>
<!-- Generator: Adobe Illustrator 19.0.0, SVG Export Plug-In . SVG Version: 6.00 Build 0)  -->
<svg version="1.1" id="圖層_1" xmlns="http://www.w3.org/2000/svg" xmlns:xlink="http://www.w3.org/1999/xlink" x="0px" y="0px"
	 viewBox="45 -33.8 150 150" style="enable-background:new 45 -33.8 150 150;" xml:space="preserve">
<style type="text/css">
	.st0{enable-background:new    ;}
	.st1{fill:#0BB4F2;}
	.st2{fill:#BD0F3A;}
	.st3{fill:#0030AD;}
</style>
<g class="st0">
	<path class="st1" d="M146.6,87.9c0,3.3-2.1,4.9-6.2,4.9c-6.3,0-13.8-0.4-22.6-1.3v4.2c9.4,1.4,15.4,2.6,18.2,3.7
		c2.6,1,4,2.9,4.2,5.5c0.5,0,1.8-0.1,3.9-0.4c7.6-0.7,11.4-4.5,11.4-11.4V53.3l-8.9,6.9V87.9z"/>
	<path class="st1" d="M155-4.1l3.6-2.6c0.9-0.6,1.3-1.2,1.3-2c0-1.3-3.1-4.3-9.4-9.1l-5.9,7.3h-33.7c0,0,0-0.1,0.1-0.1h-4.6
		c0,0,0,0.1,0,0.1H90.8l-1.9-1c-3.6-1.7-6.5-2.9-8.6-3.6v69.6l-9.2,0.6c-4.3,0.4-8.8,0.7-13.6,0.9c1.8,8.8,3.6,13.3,5.5,13.3
		c1.1,0,2.3-1.8,3.4-5.4c28.2-3.2,55.4-7.4,79.7-12.3V54l8.9-8.5V-4.1z M146.1,47.8c-18.1,2.6-37.1,4.6-57,6V34h57V47.8z
		 M146.1,30.2h-57V13.3h57V30.2z M146.1,9.6h-57V-6.7h57V9.6z"/>
	<path class="st2" d="M118.7-22.7c4.1-0.9,6.2-2,6.2-3.1c0-1.8-4.9-3.5-14.6-5.1c-0.7,7.6-2,14.4-3.9,20.5h4.6
		C114.7-15.6,117.3-19.6,118.7-22.7z"/>
	<path class="st3" d="M155,44.7c-2.1,2-5.9,5.1-8.9,7.2C120,71.7,88.5,86.6,52.7,97l2.1,3.9c35.1-8.4,65.6-21.7,91.8-39.8l5-3.6
		l3.9-3.3c10.4-9.9,19-19.4,25.8-28.5c0.7,0.1,1.5,0.1,2.4,0.1c2.4,0,3.6-0.6,3.6-1.8c0-1.9-3.3-5-10-9.2
		C170.1,26.2,162.7,36.2,155,44.7"/>
</g>
</svg>
