<?xml version="1.0" encoding="utf-8"?>
<!-- Generator: Adobe Illustrator 19.0.0, SVG Export Plug-In . SVG Version: 6.00 Build 0)  -->
<svg version="1.1" id="圖層_1" xmlns="http://www.w3.org/2000/svg" xmlns:xlink="http://www.w3.org/1999/xlink" x="0px" y="0px"
	 viewBox="45 -33.8 150 150" style="enable-background:new 45 -33.8 150 150;" xml:space="preserve">
<style type="text/css">
	.st0{enable-background:new    ;}
	.st1{fill:#BD0F3A;}
	.st2{fill:#0BB4F2;}
</style>
<g class="st0">
	<path class="st1" d="M124.4-4.1l4.2-2.7c0.8-0.5,1.2-1.1,1.2-1.8c0-1.3-3.3-4.6-9.8-9.9l-6,7.2H60l1.8,3.7h53.9v22.7h8.7V-4.1z"/>
	<path class="st2" d="M174.8,76.8l-7.7,10h-42.7V39.4h39.8V49h8.9v-59.5c4.1-1.7,6.2-3.1,6.2-4.3c0-2.1-5-3.4-15-4v54.6h-39.8V15.2
		h-8.7v20.5H77.3c-2.4-1.4-6-3.2-10.7-5.6v67.1h8.9V39.4h40.2v61.2h8.7v-10h58.7l1.8-3.3C182.3,84.1,178.9,80.6,174.8,76.8z"/>
</g>
</svg>
