<?xml version="1.0" encoding="utf-8"?>
<!-- Generator: Adobe Illustrator 19.0.0, SVG Export Plug-In . SVG Version: 6.00 Build 0)  -->
<svg version="1.1" id="圖層_1" xmlns="http://www.w3.org/2000/svg" xmlns:xlink="http://www.w3.org/1999/xlink" x="0px" y="0px"
	 viewBox="45 -33.8 150 150" style="enable-background:new 45 -33.8 150 150;" xml:space="preserve">
<style type="text/css">
	.st0{enable-background:new    ;}
	.st1{fill:#BD0F3A;}
	.st2{fill:#0030AD;}
	.st3{fill:#0BB4F2;}
</style>
<g class="st0">
	<path class="st1" d="M98.4-11.6c1.1,3.6,2.8,5.4,5.1,5.4c3.7,0,5.6-1.9,5.6-5.7c0-6.8-6.7-12.9-20-18.3l-1.9,2.7
		C93-23,96.8-17.7,98.4-11.6z"/>
	<path class="st2" d="M99.1,56.1C87.8,72.9,72.7,86.7,53.7,97.3l2.2,3.3c19.3-8.8,34.6-20.1,45.9-33.8V56.1H99.1z"/>
	<polygon class="st3" points="101.8,56.1 101.8,66.8 101.8,66.8 101.8,105.2 110.7,105.2 110.7,56.1 	"/>
	<path class="st3" d="M138.3,56.1h17.5v5.9h8.4v-26h21l1.5-2.9c-3-4.2-5.9-7.5-8.7-10l-6.4,9.2h-7.3V20l3.4-2.4
		c0.9-0.6,1.4-1.2,1.4-1.9c0-1.4-3-4.4-9.1-9l-5.5,6.9h-18V-1.8h-8.7v15.4h-17.1V-1.8h-8.9v15.4H70.6l1.3,3.7h29.9v14.9H53.7
		l1.5,3.7h46.7v16.4h-33l1.5,3.7h28.8c0,0,0,0,0,0.1h11.6v-0.1h17.1v0.1L138.3,56.1L138.3,56.1z M127.8,52.3h-17.1V35.9h17.1V52.3z
		 M127.8,32.2h-17.1V17.3h17.1V32.2z M136.5,17.3h19.3v14.9h-19.3V17.3z M136.5,35.9h19.3v16.4h-19.3V35.9z"/>
	<path class="st3" d="M127.8,56.1v49.1h8.7V60.1c0,0,0,0.1,0.1,0.1l-0.1-4H127.8z"/>
	<path class="st2" d="M139,56.9l-0.7-0.8h-1.9l0.1,4c12,16,26.7,28.4,44.2,37.3c1.7-3.6,4.1-6.6,7.1-9
		C168.3,81.4,152.1,70.9,139,56.9z"/>
	<path class="st1" d="M110.7-1.9h17.1v0h8.7v0h45.8l1.5-2.7c-2.7-3.8-6.1-7.4-10-11.1l-7.5,10H136c5.3-5.5,9.5-10.4,12.5-14.7
		c4.5-0.1,6.7-0.9,6.7-2.2c0-2.1-4.4-4.8-13.3-8.3c-2.9,8.6-6.7,17-11.4,25.2H56.6l1.3,3.7h43.9v0L110.7-1.9L110.7-1.9z"/>
</g>
</svg>
