<?xml version="1.0" encoding="utf-8"?>
<!-- Generator: Adobe Illustrator 19.0.0, SVG Export Plug-In . SVG Version: 6.00 Build 0)  -->
<svg version="1.1" id="圖層_1" xmlns="http://www.w3.org/2000/svg" xmlns:xlink="http://www.w3.org/1999/xlink" x="0px" y="0px"
	 viewBox="45 -33.8 150 150" style="enable-background:new 45 -33.8 150 150;" xml:space="preserve">
<style type="text/css">
	.st0{enable-background:new    ;}
	.st1{fill:#BD0F3A;}
	.st2{fill:#0BB4F2;}
	.st3{fill:#0030AD;}
</style>
<g class="st0">
	<path class="st1" d="M176-20.6l-7.8,9.7h-42.8V-22c4-1.3,5.9-2.6,5.9-3.9c0-2.1-4.7-3.3-14.2-3.4v18.5H74.3
		c-3.2-1.5-6.6-2.9-10.3-4v41.4c0,33.4-4.8,59.3-14.4,77.6l3.4,2.2C65.1,89,71.6,64.7,72.5,33.4h0l0.1-3.7h0v-8.7h0v-3.7h0V5.9h0
		V2.2h0v-9.3H98v0h8.3v0h24.2v0h8.3v0h45.4l1.8-2.7C182.7-13.9,179.4-17.5,176-20.6z"/>
	<path class="st2" d="M175.8,23.3l-4.9,6.3H72.7l-0.1,3.7H171c-2.1,4.6-4.1,8.4-5.9,11.3c-3.2-2.4-7.1-4.8-11.7-7.1l-1.8,2.7
		c6.4,5.6,10.7,11.8,12.9,18.6c1.1,3.2,2.7,4.8,5,4.8c3.4,0,5.1-1.8,5.1-5.4c0-3.4-2.1-7.1-6.4-11.1c3.4-2.7,6.9-6.1,10.5-10.2
		l4.8-1.2c1.2-0.3,1.8-0.9,1.8-1.7C185.3,32.6,182.2,29.1,175.8,23.3z"/>
	<path class="st2" d="M130.5,2.2h-24.2v-9.3H98v9.3H72.7v3.7H98v11.3H72.7v3.7h89.8v3.5h8.3V8.3l3.3-2.1c0.8-0.5,1.2-1,1.2-1.5
		c0-1.5-2.9-4.3-8.7-8.3l-5.3,5.7h-22.4v-9.3h-8.3V2.2z M130.5,17.2h-24.2V5.9h24.2V17.2z M138.8,5.9h23.7v11.3h-23.7V5.9z"/>
	<path class="st2" d="M116.6,37c4.8,2.6,7.8,5.7,9.2,9.2c0.9,2.1,2.2,3.1,4,3.1c2.9,0,4.4-1.6,4.4-4.8c0-4.6-5.4-7.9-16.3-10
		L116.6,37z"/>
	<path class="st2" d="M103.7,73.3l1.2-0.9h0.1l4.2-3.7H109c1.7-1.6,4.3-4.2,7.8-8c2.4,0.1,5.6,0.2,9.6,0.2c10.6,0,17.8-0.5,21.5-1.4
		c3.2-0.7,4.9-3.1,5.1-7c-2.5,0-4.1-0.7-4.8-2c-0.8-1.4-1.2-4.3-1.2-8.6l-3.6-1.3c0,0.3-0.1,0.7-0.1,1.2c0,0.6-0.1,1.1-0.1,1.3
		c-0.7,5.5-1.9,8.7-3.6,9.6c-1.7,0.9-7.6,1.4-17.7,1.4c-6.9,0-11.1-0.3-12.5-0.9c-1.1-0.5-1.6-1.7-1.6-3.7v-6.9c3.3-1.2,5-2.4,5-3.4
		c0-1.6-4.2-2.6-12.6-3v14.8c0,5.3,2.6,8.3,7.9,8.9C96.5,72.6,83.3,82.1,68.6,88.5l2.2,3.1C82.1,87.3,92,82,100.5,75.9c0,0,0,0,0,0
		L103.7,73.3C103.7,73.3,103.7,73.3,103.7,73.3z"/>
	<path class="st3" d="M133.5,88.9c8-3.9,15.1-8.3,21.3-13.2l3.9-1.7c1.4-0.6,2.1-1.2,2.1-1.9c0-1.2-3.1-3.9-9.4-8.3l-5,4.8h-37.2
		l-4.2,3.7h40.9c-6.4,5.3-13.4,9.8-20.9,13.5c-8.1-3.5-15.2-7.7-21.2-12.5l-3.2,2.5c5.8,5.1,11.8,9.3,18,12.9
		c-17.8,7.3-35.4,12.2-52.9,14.7l2.1,3.6c22-2.7,41.5-7.5,58.7-14.4c13.5,5.6,31.9,9.5,55.3,11.7c1.5-3.2,3.6-6.1,6.4-8.9
		C164.6,95.2,146.4,93,133.5,88.9z"/>
	<path class="st2" d="M77.9,57.7c-2.1,1.7-3.1,3.2-3.1,4.6c0,3.4,1.6,5.1,4.9,5.1c3.5,0,6.5-3,9-9c2-5.1,3-11.2,3-18.2l-3.3-1.1
		C86.4,47.8,82.9,54,77.9,57.7z"/>
</g>
</svg>
