<?xml version="1.0" encoding="utf-8"?>
<!-- Generator: Adobe Illustrator 19.0.0, SVG Export Plug-In . SVG Version: 6.00 Build 0)  -->
<svg version="1.1" id="圖層_1" xmlns="http://www.w3.org/2000/svg" xmlns:xlink="http://www.w3.org/1999/xlink" x="0px" y="0px"
	 viewBox="45 -33.8 150 150" style="enable-background:new 45 -33.8 150 150;" xml:space="preserve">
<style type="text/css">
	.st0{enable-background:new    ;}
	.st1{fill:#BD0F3A;}
	.st2{fill:#0BB4F2;}
	.st3{fill:#0030AD;}
</style>
<g class="st0">
	<path class="st1" d="M181.5-4.6l1.8-2.7c-3-4.1-6.4-7.7-10.3-10.8l-7.3,9.7h-40.5v-13.3c4.3-1.4,6.5-2.7,6.5-4c0-2-5-3.2-15.1-3.7
		v21H77.3c-4.2-2.1-7.8-3.8-11-4.8v39.8c0,33.6-5.2,59.2-15.6,76.7l3.3,2.3C66.1,90.8,73.1,69,74.9,40.3h0l0.2-3.7H75
		c0.1-2,0.1-5.3,0.1-10v-9.7h0.1l0.1-3.7h-0.2V-4.6H181.5z"/>
	<path class="st2" d="M98.5,16.7v19.8H75.1l-0.2,3.7h88.8v5.9h8.3V19.5l3.4-2c1.2-0.7,1.8-1.5,1.8-2.2c0-1.3-3-4.2-9-8.9l-5.7,6.6
		h-23.6V5.8c3.8-1.4,5.7-2.7,5.7-3.9c0-2-4.7-3.1-14-3.6V13h-23.8V6.3c3.9-1.5,5.9-2.9,5.9-4.1c0-2.1-4.7-3.3-14.1-3.7V13H75.4
		l-0.1,3.7H98.5z M138.9,16.7h24.8v19.8h-24.8V16.7z M106.8,16.7h23.8v19.8h-23.8V16.7z"/>
	<path class="st2" d="M96.5,90.9V69.1H124l1.8-3c-1.8-2.4-4.5-5.6-8.3-9.6l-6.4,8.9H96.5v-13c4.1-1.4,6.2-2.6,6.2-3.7
		c0-1.9-4.9-3.2-14.6-3.8v46.9c-1.4,0.1-4,0.4-7.8,0.7c-3.9,0.3-7,0.6-9.4,0.8c2,9.1,4.1,13.6,6.3,13.6c1.2,0,2.1-1.9,2.7-5.6
		c17.5-3.4,33.5-7.3,48-11.8l-0.7-4C116.3,88.1,106,89.8,96.5,90.9z"/>
	<path class="st3" d="M181.2,89.5c-0.8-2.1-1.2-6.3-1.2-12.9l-4-1.3c-1.2,11.3-3.1,17.5-5.9,18.6c-1.7,0.5-7.3,0.7-16.9,0.7
		c-5.2,0-8.6-0.2-10-0.7c-1.5-0.4-2.3-2-2.3-4.7V75.1c11.2-2.5,21.9-6.2,31.9-10.8c2.3,0.5,4.1,0.8,5.1,0.8c1.6,0,2.4-0.4,2.4-1.3
		c0-2-3.2-5.1-9.7-9.4c-8.6,7.1-18.5,12.6-29.7,16.7V52.5c4-1.4,6-2.7,6-4c0-2.1-4.8-3.3-14.4-3.7v45.9c0,4.4,0.8,7.3,2.4,8.6
		c2.2,1.8,9.8,2.7,22.8,2.7c13,0,21-0.5,24-1.6c2.6-1.1,4.1-3.7,4.3-8C183.6,92.5,182,91.5,181.2,89.5z"/>
</g>
</svg>
