<?xml version="1.0" encoding="utf-8"?>
<!-- Generator: Adobe Illustrator 19.0.0, SVG Export Plug-In . SVG Version: 6.00 Build 0)  -->
<svg version="1.1" id="圖層_1" xmlns="http://www.w3.org/2000/svg" xmlns:xlink="http://www.w3.org/1999/xlink" x="0px" y="0px"
	 viewBox="45 -33.8 150 150" style="enable-background:new 45 -33.8 150 150;" xml:space="preserve">
<style type="text/css">
	.st0{enable-background:new    ;}
	.st1{fill:#0BB4F2;}
	.st2{fill:#BD0F3A;}
</style>
<g class="st0">
	<path class="st1" d="M76.3-3.3l-1.2-0.6c-0.5-0.2-2.5-1-6.1-2.4l-1.7-0.6v110.2h9.2V91.6H115l1.7-2.9c-3.8-4.8-7.2-8.4-10-10.9
		l-7.5,10H76.5v-45H115l1.7-2.9c-2.9-3.7-6.3-7.2-10-10.6l-7.4,9.7H76.5V0.6c0,0,0,0,0,0v-3.9C76.4-3.4,76.4-3.3,76.3-3.3z"/>
	<path class="st1" d="M166.7-11.3l-6.4,7.8h-35.5l2,3.7h35.4v38.8h-36.2l1.7,3.7h34.5v45h-36.2l1.7,3.7h34.5v11.7h9.2V3l3.9-2.6
		c0.9-0.6,1.4-1.2,1.4-1.9C176.5-3.1,173.2-6.3,166.7-11.3z"/>
	<path class="st2" d="M112.5-23.4c-10.3,8.4-22.3,15-36,20v3.9c13.3-2.9,26.1-7.3,38.5-13.3c2.5,0.5,4.4,0.7,5.6,0.7
		c1.9,0,2.9-0.5,2.9-1.5C123.4-15.5,119.8-18.8,112.5-23.4z"/>
</g>
</svg>
