<?xml version="1.0" encoding="utf-8"?>
<!-- Generator: Adobe Illustrator 19.0.0, SVG Export Plug-In . SVG Version: 6.00 Build 0)  -->
<svg version="1.1" id="圖層_1" xmlns="http://www.w3.org/2000/svg" xmlns:xlink="http://www.w3.org/1999/xlink" x="0px" y="0px"
	 viewBox="45 -33.8 150 150" style="enable-background:new 45 -33.8 150 150;" xml:space="preserve">
<style type="text/css">
	.st0{enable-background:new    ;}
	.st1{fill:#0030AD;}
	.st2{fill:#0BB4F2;}
	.st3{fill:#BD0F3A;}
</style>
<g class="st0">
	<path class="st1" d="M186.4,91.2c-0.8-2.1-1.2-7-1.2-14.7l-4-1.2c-0.9,11.9-3.5,18.3-7.9,19c-4.2,0.7-13.8,1-28.9,1h-10.3v-0.1
		l-8.3-0.4V95c-4.3-0.1-7.4-0.4-9.2-0.7c-2.2-0.4-3.3-2.1-3.3-4.9v-4.3h-8.3v5.4c0,4.9,1.2,8.1,3.6,9.4c3,1.8,16,2.7,38.8,2.7
		c20.6,0,33.1-0.5,37.6-1.5c3.6-0.8,5.5-3.3,5.9-7.5C188.7,93.7,187.2,92.9,186.4,91.2z"/>
	<path class="st2" d="M113.4,1.9h12.5v93l8.3,0.4V79h31.5v6.2h8.1V38.1l3.9-2.7c0.7-0.4,1.1-1,1.1-1.6c0-1.5-3-4.4-9-8.7l-5.3,6.2
		h-30.3V18.7h25.3v4h8.1V4.4l4-2.6c0.5-0.3,0.8-0.7,0.8-1.2c0-1.4-3-4.5-8.9-9.2l-5.3,6.6h-38.7c0.1-0.1,0.1-0.1,0.2-0.2h-6
		c0,0.1-0.1,0.1-0.1,0.2H83.1l-1.6-1l-8.6,7.2v18.4h8.3v-4h24v20.2H93.6v-5.2l2.6-2c0.7-0.4,1-0.9,1-1.6c0-1.3-2.7-3.8-8.1-7.5
		l-4.7,5.6h-24l1.2,3.7h24v7H52.6l1.3,3.7h31.6v8.1H60.4l1.3,3.7h23.8v2h8.1V42.7h11.5v32.6H93.6v-5.1l2.7-2.1
		c0.6-0.4,0.9-0.9,0.9-1.5c0-1-2.7-3.6-8.1-7.8l-4.3,5.1H60.5l1.3,3.7h23.7v7.7H52.9l1,3.7h31.6v8.3H60.7L62,91h23.5v4.8h8.1V79
		h11.5v6.1h8.3V1.9z M134.2,1.9h25.3V15h-25.3V1.9z M134.2,34.9h31.5v40.4h-31.5V34.9z M81.1,15V1.9h24V15H81.1z"/>
	<path class="st3" d="M81.4-2.9c3.9-3.5,7.6-7.1,11.1-11h29.7c-1.5,2.8-4.3,6.7-8.5,11.8h6c5.2-3.7,8.9-6.7,11.3-9.1l4.5-1.3
		c1.2-0.5,1.8-1,1.8-1.5c0-1.4-3.1-4.8-9.4-10.3l-5.7,6.7H95.8c2.1-2.8,3.7-4.8,4.8-6.2c4.7-0.4,7-1.2,7-2.4c0-2-4.4-3.6-13.2-4.9
		c-10,17.3-23.7,31.8-41.2,43.7l2.1,3.1C62.1,11.8,68,8,72.8,4.3v0.1L81.4-2.9L81.4-2.9z"/>
	<path class="st2" d="M153,37.8c-1.2,4-2.7,8-4.5,12c-2.9-1.7-6.5-3.5-10.8-5.4l-1.6,2.9c3.1,1.7,6.4,4.1,10,7.2
		c-2.6,4.9-6.1,9.9-10.5,15.2l2.5,2.3c4.6-4,8.6-8.4,12.2-13.4c1.1,1.1,2.4,2.6,3.7,4.4c1.7,2.2,3.1,3.3,4.2,3.3
		c2.2,0,3.3-1.1,3.3-3.4c0-2.8-2.7-6-8-9.6c2-3.5,3.2-5.9,3.8-7.3c3,0,4.5-0.4,4.5-1.3C161.8,42.9,158.9,40.7,153,37.8z"/>
</g>
</svg>
