<?xml version="1.0" encoding="utf-8"?>
<!-- Generator: Adobe Illustrator 19.0.0, SVG Export Plug-In . SVG Version: 6.00 Build 0)  -->
<svg version="1.1" id="圖層_1" xmlns="http://www.w3.org/2000/svg" xmlns:xlink="http://www.w3.org/1999/xlink" x="0px" y="0px"
	 viewBox="45 -33.8 150 150" style="enable-background:new 45 -33.8 150 150;" xml:space="preserve">
<style type="text/css">
	.st0{enable-background:new    ;}
	.st1{fill:#BD0F3A;}
	.st2{fill:#0BB4F2;}
</style>
<g class="st0">
	<path class="st1" d="M183.4-8.4l1.8-3.1c-3.5-3.8-7.1-7.3-10.7-10.3l-7.5,9.7h-43.5v-10.9c3.9-1.2,5.9-2.4,5.9-3.7
		c0-1.9-4.8-3-14.4-3.4v18H54.9l1.6,3.7H183.4z"/>
	<path class="st2" d="M136.6,0.7c3.7,0,5.6-0.6,5.6-1.7c0-1.6-3.5-3.9-10.6-6.7c-2.2,6-5.4,12.4-9.6,19c-3.9-0.4-6-0.6-6.2-0.6
		c0.6-0.9,1-1.9,1-2.9c0-5.5-5.1-10.5-15.2-14.9l-2.1,2.6c4.8,4.3,7.7,8.8,8.7,13.6c0.4,2.4,1.6,3.6,3.6,3.6c1,0,2.1-0.4,3.3-1.3
		v34.2h8.3V17.6c3.8-1.4,5.7-2.6,5.7-3.6c0-0.6-1.1-1.3-3.1-2.1C130.2,8,133.8,4.3,136.6,0.7z"/>
	<path class="st2" d="M80.8,8.2h12.3c0,8.2-0.5,15-1.6,20.5c-0.8,3.3-2.8,5-6,5c-2.7,0-6.2-0.2-10.4-0.7v3.7
		c6.9,0.9,10.4,3,10.5,6.4c4.2,0.1,7.5-1.1,10-3.7c3.1-3.3,4.8-13,4.9-28.9l3-2c0.5-0.3,0.8-0.7,0.8-1.2c0-1.4-2.6-4-7.8-7.8l-3.9,5
		h-36l1.8,3.7h13.9c-1,15.2-7.7,26.6-20.1,34.2l2.1,3C70.7,38.4,79.5,26,80.8,8.2z"/>
	<path class="st2" d="M155.7,44.1v14.6H88.2v-5.1c4-1.3,6-2.6,6-3.9c0-1.9-5-3.1-14.9-3.7v20.4c0,16.8-7.9,28.9-23.7,36.1l2.3,3.1
		c15.2-4.5,24.8-13.1,28.6-25.8h69.2v25h8.3V52.1c3.7-1.3,5.6-2.7,5.6-4C169.7,45.8,165,44.5,155.7,44.1z M155.7,76H87.3
		c0.6-3,0.9-6.2,0.9-9.6v-4h67.5V76z"/>
	<path class="st2" d="M162.3,7.7c6.7-1.6,10.3-2.4,10.8-2.6c1.8,0.4,3.2,0.7,4.4,0.7c1.7,0,2.6-0.5,2.6-1.4c0-1.6-2.9-4.2-8.7-7.9
		C164.5,0.9,156.6,4,147.4,6c-2.1-1-5-2.1-8.4-3.1V34c-1,0.1-4.1,0.5-9.3,1.2c2,7.3,3.8,11,5.6,11c1,0,1.8-1.7,2.4-5
		c6.7-1.5,15.4-4.2,26.2-8.3l-0.9-3.4c-5.4,1.3-10.1,2.3-14.1,3l-1.8,0.3V10c3.8-0.4,7.5-1,11.3-1.7l0.1,1
		c2.5,14.4,10.3,26.2,23.4,35.5c1.6-2.8,4-5.2,7-7.2C175.4,30.6,166.6,20.7,162.3,7.7z"/>
</g>
</svg>
