<?xml version="1.0" encoding="utf-8"?>
<!-- Generator: Adobe Illustrator 19.0.0, SVG Export Plug-In . SVG Version: 6.00 Build 0)  -->
<svg version="1.1" id="圖層_1" xmlns="http://www.w3.org/2000/svg" xmlns:xlink="http://www.w3.org/1999/xlink" x="0px" y="0px"
	 viewBox="45 -33.8 150 150" style="enable-background:new 45 -33.8 150 150;" xml:space="preserve">
<style type="text/css">
	.st0{enable-background:new    ;}
	.st1{fill:#BD0F3A;}
	.st2{fill:#0BB4F2;}
</style>
<g class="st0">
	<path class="st1" d="M162.3,24.7V3.6h23.1l1.4-2.9c-2.1-3.1-5-6.5-8.6-10l-6.1,9.2h-9.8v-8.3l3.9-2.3c1-0.5,1.5-1.1,1.5-1.8
		c0-1.6-3.1-4.7-9.4-9.3l-5.4,6.9h-29.2v-7.2c4.3-1.4,6.4-2.7,6.4-4.1c0-2.2-5-3.4-15-3.6v14.9H70.9l1.5,3.7H115v11h-62l1.3,3.7H115
		v12H68.8l1.8,3.7H115v7.3h8.6v-7.3H154v5.4H162.3z M123.6-11.2H154v11h-30.4V-11.2z M123.6,15.6v-12H154v12H123.6z"/>
	<path class="st2" d="M115,61.4H77.2V51h15.3v4.3h8.1V34.5c3.3-1,4.9-2.2,4.9-3.4c0-2-4.3-3.1-13-3.6v19.8H77.2V34.6
		c3.7-1.3,5.6-2.6,5.6-3.9c0-2-4.7-3.1-14-3.6v35.5c0,18.2-5.6,31.7-16.8,40.5l2.5,2.9c11.2-6.3,18.2-15.4,21-27.2h16.1v22.5h8.1
		V81.9l3.6-2.7c0.4-0.2,0.6-0.6,0.6-1c0-1.1-3-4-8.9-8.9l-4.3,5.9H76.3c0.4-2.8,0.7-6.2,0.9-10H115V103h8.6V65.1h40.6v10H147
		c-2.7-1.4-5.7-2.7-8.9-3.9v30.1h8.1V78.9h17.9v25.6h8.5V34.8c3.8-1.4,5.6-2.7,5.6-4c0-2.1-4.7-3.3-14.1-3.6v20.1h-17.9V34.5
		c3.8-1.2,5.6-2.4,5.6-3.6c0-2.1-4.6-3.3-13.8-3.7v28.1h8.1V51h17.9v10.4h-40.6V26.7H115V61.4z"/>
</g>
</svg>
