<?xml version="1.0" encoding="utf-8"?>
<!-- Generator: Adobe Illustrator 19.0.0, SVG Export Plug-In . SVG Version: 6.00 Build 0)  -->
<svg version="1.1" id="圖層_1" xmlns="http://www.w3.org/2000/svg" xmlns:xlink="http://www.w3.org/1999/xlink" x="0px" y="0px"
	 viewBox="45 -33.8 150 150" style="enable-background:new 45 -33.8 150 150;" xml:space="preserve">
<style type="text/css">
	.st0{enable-background:new    ;}
	.st1{fill:#BD0F3A;}
	.st2{fill:#0030AD;}
	.st3{fill:#0BB4F2;}
</style>
<g class="st0">
	<path class="st1" d="M125.5-20c4.6-1.6,6.9-3.1,6.9-4.6c0-2.3-5.2-3.6-15.6-3.8v23.1l8.7-1.1V-20z"/>
	<path class="st2" d="M113.2,39.7C98.8,62,79.5,80.5,55.3,95.2l2.1,3.4c24.7-12,44.4-28.4,59.3-49v-10H113.2z"/>
	<path class="st1" d="M116.7,39.7v10c0,0,0.1-0.1,0.1-0.1v55.5h8.7V39.7H116.7z"/>
	<path class="st3" d="M174.5,29.6l-5.6,6.3h-43.4v0h-8.7v0H74.4c2.2-9.5,4.1-20.7,5.9-33.6c12.2-0.6,24.3-1.3,36.5-2.2v0v0l8.7-0.7
		v0c15-1.3,28.7-2.8,41.2-4.5c2.5,0.7,4.5,1,6,1c1.7,0,2.6-0.4,2.6-1.3c0-1.9-3.3-4.9-10-8.9c-10.6,2.9-23.9,5.5-39.7,7.8v-0.1
		l-8.7,1.1v0.2c-7.2,0.8-18.5,2-33.9,3.4c-2.1-1.3-5.3-2.9-9.9-5c-2.8,21.9-6.4,41-10.8,57.3l8.6,1.3c0.1-0.6,1.1-4.7,3-12.3h39.5
		c0,0,0,0,0,0h12.3v0H170c-0.5,16.6-1.8,27.4-3.7,32.4c-1.5,4.1-4.7,6.2-9.6,6.2c-5.2,0-11.8-0.6-19.9-1.8v4
		c7.8,1.3,12.9,2.6,15.3,3.9c2.3,1.1,3.4,3,3.4,5.7c6.5,0.1,11.5-1.8,14.8-5.7c4.6-5.1,7.3-19.2,8.1-42.1l3.1-2.1
		c0.9-0.6,1.4-1.2,1.4-1.9C182.9,36.7,180.1,33.9,174.5,29.6z"/>
	<polygon class="st1" points="116.8,35.9 125.5,35.9 125.5,-0.5 116.8,0.2 	"/>
</g>
</svg>
