<?xml version="1.0" encoding="utf-8"?>
<!-- Generator: Adobe Illustrator 19.0.0, SVG Export Plug-In . SVG Version: 6.00 Build 0)  -->
<svg version="1.1" id="圖層_1" xmlns="http://www.w3.org/2000/svg" xmlns:xlink="http://www.w3.org/1999/xlink" x="0px" y="0px"
	 viewBox="45 -33.8 150 150" style="enable-background:new 45 -33.8 150 150;" xml:space="preserve">
<style type="text/css">
	.st0{enable-background:new    ;}
	.st1{fill:#BD0F3A;}
	.st2{fill:#0BB4F2;}
</style>
<g class="st0">
	<path class="st1" d="M75.5,35.6v-46.2c4.1-1.7,6.2-3.1,6.2-4.3c0-2.1-5-3.4-15-4V49h8.9v-9.6h21.2v-3.7H75.5z"/>
	<path class="st2" d="M181.7-7.6l1.8-3.3c-3-3.6-6.4-7.1-10.2-10.5l-7.7,10h-39.3c-3.6-2.1-7.1-4-10.7-5.6v52.5H96.6v3.7h19.1v47.5
		H60l1.8,3.7h53.9v10.2h8.9V39.4h41.1v61.4h8.7V42.8l4.2-2.7c0.8-0.5,1.2-1.1,1.2-1.8c0-1.3-3.3-4.6-9.8-9.9l-5.9,7.2h-39.5V-7.6
		H181.7z"/>
</g>
</svg>
