<?xml version="1.0" encoding="utf-8"?>
<!-- Generator: Adobe Illustrator 19.0.0, SVG Export Plug-In . SVG Version: 6.00 Build 0)  -->
<svg version="1.1" id="圖層_1" xmlns="http://www.w3.org/2000/svg" xmlns:xlink="http://www.w3.org/1999/xlink" x="0px" y="0px"
	 viewBox="45 -33.8 150 150" style="enable-background:new 45 -33.8 150 150;" xml:space="preserve">
<style type="text/css">
	.st0{enable-background:new    ;}
	.st1{fill:#0BB4F2;}
	.st2{fill:#BD0F3A;}
	.st3{fill:#0030AD;}
</style>
<g class="st0">
	<path class="st1" d="M100.4,17v7.4h8.6v-38.6c3.6-1.3,5.3-2.6,5.3-3.9c0-2.1-4.6-3.3-13.9-3.7v35.1H76.4V17H100.4z"/>
	<path class="st1" d="M135.6,13.3v-28.1c3.5-1.4,5.3-2.7,5.3-3.9c0-2.1-4.6-3.1-13.8-3.3v46.2h8.6V17h28.1v-3.7H135.6z"/>
	<path class="st2" d="M74.2,58.5c0.9-6.2,1.5-12.4,1.8-18.7h0l0.2-3.7h-0.1c0.1-1.8,0.1-4.5,0.1-8.1V17h0.1v-3.7h-0.1v-27
		c4-1.6,6-3.1,6-4.3c0-2.3-5.2-3.6-15.5-3.7v50.2c0,32.1-5.2,56.9-15.7,74.2l3,2.6c9.7-11,16.1-25.4,19.3-43h0.1L74.2,58.5
		L74.2,58.5z"/>
	<path class="st1" d="M101.4,52.3l-5.2,6.2H74.3l-0.8,3.7h23.7v37.5h8.7V64.7l2.9-1.8c0.9-0.6,1.3-1.2,1.3-1.9
		C110.1,59.5,107.2,56.6,101.4,52.3z"/>
	<polygon class="st1" points="163.6,36.1 76.3,36.1 76.1,39.8 163.6,39.8 	"/>
	<path class="st1" d="M136.5,58.5c-2.9-1.8-6.3-3.4-10.2-5v46.2h8.7V62.2h28.7v-3.7H136.5z"/>
	<path class="st3" d="M163.8-24.3v37.6h-0.1V17h0.1v19h-0.2v3.7h0.2v18.7h0v3.7h0v39.1h9.2V-15.8c4.5-1.4,6.7-2.8,6.7-4.2
		C179.7-22.5,174.4-23.9,163.8-24.3z"/>
</g>
</svg>
