<?xml version="1.0" encoding="utf-8"?>
<!-- Generator: Adobe Illustrator 19.0.0, SVG Export Plug-In . SVG Version: 6.00 Build 0)  -->
<svg version="1.1" id="圖層_1" xmlns="http://www.w3.org/2000/svg" xmlns:xlink="http://www.w3.org/1999/xlink" x="0px" y="0px"
	 viewBox="45 -33.8 150 150" style="enable-background:new 45 -33.8 150 150;" xml:space="preserve">
<style type="text/css">
	.st0{enable-background:new    ;}
	.st1{fill:#BD0F3A;}
	.st2{fill:#0BB4F2;}
</style>
<g class="st0">
	<path class="st1" d="M109.9-12.8c2.5,0.5,4.4,0.7,5.6,0.7c1.9,0,2.9-0.5,2.9-1.5c0-2-3.6-5.3-10.9-9.9C97.1-15,88-8.4,80.2-3.4v4
		C87.6-2.3,97.5-6.8,109.9-12.8z"/>
	<path class="st2" d="M177.7,84.1l-7,9.3h-3.1V3l3.9-2.6c0.9-0.6,1.4-1.2,1.4-1.9c0-1.6-3.3-4.8-9.9-9.8l-6.4,7.8h-26.7l2,3.7h26.6
		v26.4h-27.4l1.7,3.7h25.7V63h-27.4l1.7,3.7h25.7v26.7H80.2V66.7h29.7l1.7-2.9c-3.8-4.8-7.2-8.4-10-10.9L94,63H80.2V30.4h29.7
		l1.7-2.9c-2.9-3.7-6.3-7.2-10-10.6l-7.4,9.7h-14V0.6c0,0,0,0,0,0v-4c-0.1,0-0.1,0.1-0.2,0.1l-1.2-0.6c-0.5-0.2-2.5-1-6.1-2.4
		L71-6.9V93.4H53.7l1.5,3.7h129.6l2.1-3C183.4,89.8,180.4,86.4,177.7,84.1z"/>
</g>
</svg>
