<?xml version="1.0" encoding="utf-8"?>
<!-- Generator: Adobe Illustrator 19.0.0, SVG Export Plug-In . SVG Version: 6.00 Build 0)  -->
<svg version="1.1" id="圖層_1" xmlns="http://www.w3.org/2000/svg" xmlns:xlink="http://www.w3.org/1999/xlink" x="0px" y="0px"
	 viewBox="45 -33.8 150 150" style="enable-background:new 45 -33.8 150 150;" xml:space="preserve">
<style type="text/css">
	.st0{enable-background:new    ;}
	.st1{fill:#BD0F3A;}
	.st2{fill:#0BB4F2;}
</style>
<g class="st0">
	<path class="st1" d="M114.9-12.8c2.9,0.5,4.7,0.7,5.4,0.7c2.1,0,3.1-0.5,3.1-1.5c0-2-3.7-5.3-11-9.9c-11,8.7-23,15.4-36,20v4.2
		C90.4-2.5,103.2-7.1,114.9-12.8z"/>
	<path class="st2" d="M166.9-11.4l-6.5,8h-35.7l2,3.7h35.5v38.8H126l1.6,3.7h34.6v45H76.3v-45h38.5l1.7-2.7l-1.4-1.6
		c-2.4-3.3-5.3-6.4-8.6-9.2l-7.5,9.7H76.3V0.9c0,0,0,0,0.1,0v-4.2c0,0,0,0-0.1,0c-3.8-1.6-6.9-2.8-9.2-3.6v110.4h9.2V91.6h85.9v11.9
		h9V3l4-2.6c0.9-0.6,1.4-1.2,1.4-1.9C176.7-3,173.4-6.3,166.9-11.4z"/>
</g>
</svg>
